<svg width="219" height="84" viewBox="0 0 219 84" fill="none" xmlns="http://www.w3.org/2000/svg">
<path d="M186.87 55.7043C192.708 55.7043 196.858 53.8677 199.32 50.1947C200.909 47.7751 201.703 44.7142 201.703 41.012C201.703 38.0968 201.028 35.4878 199.678 33.1848C197.255 29.0453 193.006 26.9755 186.93 26.9755C182.641 26.9755 179.186 28.1853 176.564 30.6049C173.983 33.0245 172.692 36.6975 172.692 41.6241C172.692 44.9182 173.288 47.6148 174.479 49.7137C176.703 53.7074 180.834 55.7043 186.87 55.7043ZM182.581 16C187.982 16 192.351 16.9766 195.687 18.9297C197.632 20.0375 199.618 21.8594 201.644 24.3956V17.3118H218.025V83.7771H201.227V58.9838C199.956 60.9078 197.771 62.6278 194.674 64.1436C191.616 65.6304 187.426 66.3737 182.104 66.3737C174.599 66.3737 168.205 64.1728 162.923 59.7709C157.641 55.369 155 49.495 155 42.1489C155 34.2197 157.641 27.8792 162.923 23.1275C168.244 18.3758 174.797 16 182.581 16Z" fill="white"/>
<path d="M118.738 56.229C114.807 56.229 111.749 55.3253 109.564 53.5179C107.42 51.7105 106.07 49.2618 105.514 46.1717H131.903C131.625 49.4659 130.255 51.9583 127.793 53.6491C125.37 55.369 122.352 56.229 118.738 56.229ZM118.738 66.5049C124.139 66.5049 129.004 65.7615 133.333 64.2748C137.662 62.7881 141.236 60.4414 144.056 57.2347C146.597 54.407 148.245 51.1275 149 47.3961C149.437 45.2097 149.616 42.0614 149.536 37.951H105.097C105.335 33.1702 107.38 29.8178 111.232 27.8938C113.576 26.6986 116.395 26.101 119.691 26.101C123.186 26.101 126.026 26.8297 128.21 28.2873C129.401 29.0744 130.454 30.1676 131.367 31.5669H148.702C148.265 28.7392 146.26 25.8677 142.686 22.9526C137.126 18.3175 129.342 16 119.334 16C111.074 16 103.786 17.9531 97.4717 21.8594C91.1572 25.7657 88 32.1207 88 40.9245C88 49.1743 90.8395 55.5002 96.5186 59.9021C102.237 64.3039 109.644 66.5049 118.738 66.5049Z" fill="white"/>
<path d="M82.5645 16.3102C82.8822 16.3102 83.1403 16.3248 83.3389 16.3539C83.5771 16.3539 84.0736 16.3685 84.8281 16.3976V29.166C83.7559 29.0785 82.8027 29.0202 81.9688 28.9911C81.1348 28.9619 80.4596 28.9473 79.9434 28.9473C73.1126 28.9473 68.5257 30.5798 66.1826 33.8448C64.8721 35.6813 64.2168 38.509 64.2168 42.3279V65.1097H47.1201V17.4471H63.3232V25.7553C65.9443 22.5777 68.2279 20.406 70.1738 19.2399C73.3509 17.2868 77.4811 16.3102 82.5645 16.3102Z" fill="white"/>
<path d="M30.6191 0C31.6914 0 32.6644 0.0291515 33.5381 0.0874544C34.4118 0.116606 35.6032 0.174909 37.1123 0.262363V10.4071C36.1592 10.3196 34.5508 10.2613 32.2871 10.2322C30.0632 10.1739 28.5143 10.5383 27.6406 11.3253C26.8066 12.0833 26.3896 12.9287 26.3896 13.8615C26.3896 14.7944 26.3896 16.1353 26.3896 17.8844H37.5293V26.6736H26.3896V65.1098H9.47168V26.6736H0V17.8844H9.29297V14.8235C9.29297 9.72201 10.4645 6.20926 12.8076 4.28526C15.2699 1.42842 21.207 0 30.6191 0Z" fill="white"/>
</svg>
