<svg width="246" height="110" viewBox="0 0 246 110" fill="none" xmlns="http://www.w3.org/2000/svg">
<g filter="url(#filter0_d_2_69)">
<path d="M231.68 30.8662H215.579V37.7961C213.588 35.315 211.636 33.5326 209.724 32.4489C206.445 30.5382 202.151 29.5829 196.843 29.5829C189.192 29.5829 182.752 31.9071 177.521 36.5555C172.33 41.204 169.734 47.4067 169.734 55.1636C169.734 62.3501 172.33 68.0965 177.521 72.4028C182.713 76.709 188.997 78.8621 196.374 78.8621C201.605 78.8621 205.723 78.1349 208.728 76.6805C211.773 75.1975 213.92 73.515 215.169 71.6328V95.8874H231.68V30.8662ZM214.388 54.0514C214.388 51.4753 213.827 49.1814 212.727 47.1562L212.499 46.7552V46.7543C211.384 44.8591 209.886 43.4945 208.038 42.5987C206.191 41.7032 203.905 41.2325 201.117 41.2325C197.274 41.2325 194.24 42.2935 191.906 44.4381C189.621 46.5734 188.372 49.9242 188.372 54.6503C188.372 57.8018 188.947 60.3089 190.033 62.2129L190.036 62.2191C191.052 64.0348 192.469 65.3398 194.251 66.1974C196.035 67.0562 198.282 67.5119 201.058 67.5119V68.4245C195.125 68.4245 191.066 66.471 188.88 62.564C187.709 60.5107 187.123 57.8728 187.123 54.6503C187.123 49.8307 188.392 46.2374 190.929 43.8704C193.505 41.5034 196.901 40.3199 201.117 40.3199C207.089 40.3199 211.266 42.3447 213.647 46.3943C214.974 48.6472 215.637 51.1996 215.637 54.0514C215.637 57.6732 214.857 60.6676 213.295 63.0346C210.875 66.6278 206.796 68.4245 201.058 68.4245V67.5119C203.747 67.5119 205.967 67.0919 207.776 66.2954C209.581 65.5004 211.054 64.2956 212.174 62.6318C213.627 60.4268 214.388 57.5814 214.388 54.0514ZM232.929 96.8H213.92V74.6174C212.697 75.6373 211.192 76.5771 209.421 77.4398L209.418 77.4415C206.135 79.03 201.745 79.7747 196.374 79.7747C188.855 79.7747 182.409 77.635 177.094 73.4205L176.584 73.0061C171.145 68.4943 168.485 62.5142 168.485 55.1636C168.485 47.2589 171.133 40.8329 176.554 35.9789L176.556 35.9763C182.003 31.1354 188.787 28.6703 196.843 28.6703C202.358 28.6703 206.95 29.6644 210.503 31.7351H210.502C211.793 32.4685 213.067 33.4718 214.33 34.7268V29.9536H232.929V96.8Z" fill="white"/>
<path d="M201.058 67.5119C198.282 67.5119 196.035 67.0562 194.251 66.1974C192.469 65.3398 191.052 64.0348 190.036 62.2191L190.033 62.2129C188.947 60.3089 188.372 57.8018 188.372 54.6503C188.372 49.9242 189.621 46.5734 191.906 44.4381C194.24 42.2935 197.274 41.2325 201.117 41.2325C203.905 41.2325 206.191 41.7032 208.038 42.5987C209.886 43.4945 211.384 44.8591 212.499 46.7543V46.7552L212.727 47.1562C213.827 49.1814 214.388 51.4753 214.388 54.0514C214.388 57.5814 213.627 60.4268 212.174 62.6318C211.054 64.2956 209.581 65.5004 207.776 66.2954C205.967 67.0919 203.747 67.5119 201.058 67.5119ZM201.058 67.5119V68.4245M201.058 67.5119V68.4245M201.058 68.4245C195.125 68.4245 191.066 66.471 188.88 62.564C187.709 60.5107 187.123 57.8728 187.123 54.6503C187.123 49.8307 188.392 46.2374 190.929 43.8704C193.505 41.5034 196.901 40.3199 201.117 40.3199C207.089 40.3199 211.266 42.3447 213.647 46.3943C214.974 48.6472 215.637 51.1996 215.637 54.0514C215.637 57.6732 214.857 60.6676 213.295 63.0346C210.875 66.6278 206.796 68.4245 201.058 68.4245ZM231.68 30.8662H215.579V37.7961C213.588 35.315 211.636 33.5326 209.724 32.4489C206.445 30.5382 202.151 29.5829 196.843 29.5829C189.192 29.5829 182.752 31.9071 177.521 36.5555C172.33 41.204 169.734 47.4067 169.734 55.1636C169.734 62.3501 172.33 68.0965 177.521 72.4028C182.713 76.709 188.997 78.8621 196.374 78.8621C201.605 78.8621 205.723 78.1349 208.728 76.6805C211.773 75.1975 213.92 73.515 215.169 71.6328V95.8874H231.68V30.8662ZM232.929 96.8H213.92V74.6174C212.697 75.6373 211.192 76.5771 209.421 77.4398L209.418 77.4415C206.135 79.03 201.745 79.7747 196.374 79.7747C188.855 79.7747 182.409 77.635 177.094 73.4205L176.584 73.0061C171.145 68.4943 168.485 62.5142 168.485 55.1636C168.485 47.2589 171.133 40.8329 176.554 35.9789L176.556 35.9763C182.003 31.1354 188.787 28.6703 196.843 28.6703C202.358 28.6703 206.95 29.6644 210.503 31.7351H210.502C211.793 32.4685 213.067 33.4718 214.33 34.7268V29.9536H232.929V96.8Z" stroke="white"/>
<path d="M100.977 53.9231C100.977 62.1413 103.82 68.5867 109.691 73.1158L109.694 73.1184C115.575 77.6238 123.194 79.8603 132.438 79.8603C137.563 79.8603 142.248 79.2016 146.472 77.8685L147.312 77.5922C151.794 76.06 155.477 73.6454 158.363 70.3816C160.809 67.6727 162.437 64.5703 163.262 61.0892L163.417 60.3878V60.3869C163.861 58.1752 164.035 55.0368 163.957 51.0009L163.94 50.1017L120.353 50.1017C120.787 46.1213 122.663 43.4713 125.763 41.9304L125.773 41.925C127.835 40.8778 130.349 40.3342 133.374 40.3342V39.4217C130.135 39.4217 127.363 40.0063 125.06 41.1755C121.274 43.0577 119.264 46.3373 119.03 51.0143L162.708 51.0143C162.786 55.0353 162.61 58.1153 162.181 60.2541C161.439 63.9044 159.819 67.1127 157.321 69.879C154.55 73.016 151.037 75.3117 146.782 76.7661C142.528 78.2205 137.746 78.9477 132.438 78.9477C123.499 78.9477 116.219 76.7946 110.598 72.4884C105.017 68.1821 102.226 61.9937 102.226 53.9231C102.226 45.3106 105.329 39.0937 111.535 35.2723C117.741 31.4509 124.904 29.5401 133.023 29.5401C142.859 29.5401 150.51 31.8073 155.975 36.3417C159.488 39.1935 161.459 42.0025 161.888 44.7688H144.85C143.952 43.3999 142.918 42.3305 141.747 41.5605C139.6 40.1346 136.809 39.4217 133.374 39.4217V40.3342C136.559 40.3342 139.031 40.9902 140.907 42.236L140.911 42.2387C141.929 42.9078 142.876 43.869 143.724 45.1627L144.063 45.6814H163.287L163.129 44.6663C162.661 41.6543 160.529 38.6778 156.912 35.7393C151.165 30.9706 143.144 28.6276 133.023 28.6276C124.61 28.6276 117.162 30.6143 110.73 34.5745C104.133 38.6364 100.977 45.1668 100.977 53.9231ZM132.438 68.8951C135.99 68.8951 138.956 68.0538 141.337 66.3712C143.757 64.7172 145.104 62.2789 145.377 59.0564L119.439 59.0564C119.986 62.0793 121.313 64.4748 123.421 66.2429C125.568 68.011 128.573 68.8951 132.438 68.8951ZM132.438 67.9825C128.854 67.9825 126.219 67.1718 124.355 65.6369C122.687 64.2352 121.518 62.3624 120.903 59.9689H144.007C143.612 62.3557 142.538 64.1477 140.871 65.4248L140.483 65.7046L140.469 65.7153C138.338 67.2206 135.691 67.9825 132.438 67.9825Z" fill="white"/>
<path d="M133.374 40.3342C130.349 40.3342 127.835 40.8778 125.773 41.925L125.763 41.9304C122.663 43.4713 120.787 46.1213 120.353 50.1017L163.94 50.1017L163.957 51.0009C164.035 55.0368 163.861 58.1752 163.417 60.3869V60.3878L163.262 61.0892C162.437 64.5703 160.809 67.6727 158.363 70.3816C155.477 73.6454 151.794 76.06 147.312 77.5922L146.472 77.8685C142.248 79.2016 137.563 79.8603 132.438 79.8603C123.194 79.8603 115.575 77.6238 109.694 73.1184L109.691 73.1158C103.82 68.5867 100.977 62.1413 100.977 53.9231C100.977 45.1668 104.133 38.6364 110.73 34.5745C117.162 30.6143 124.61 28.6276 133.023 28.6276C143.144 28.6276 151.165 30.9706 156.912 35.7393C160.529 38.6778 162.661 41.6543 163.129 44.6663L163.287 45.6814H144.063L143.724 45.1627C142.876 43.869 141.929 42.9078 140.911 42.2387L140.907 42.236C139.031 40.9902 136.559 40.3342 133.374 40.3342ZM133.374 40.3342V39.4217M133.374 40.3342V39.4217M133.374 39.4217C130.135 39.4217 127.363 40.0063 125.06 41.1755C121.274 43.0577 119.264 46.3373 119.03 51.0143L162.708 51.0143C162.786 55.0353 162.61 58.1153 162.181 60.2541C161.439 63.9044 159.819 67.1127 157.321 69.879C154.55 73.016 151.037 75.3117 146.782 76.7661C142.528 78.2205 137.746 78.9477 132.438 78.9477C123.499 78.9477 116.219 76.7946 110.598 72.4884C105.017 68.1821 102.226 61.9937 102.226 53.9231C102.226 45.3106 105.329 39.0937 111.535 35.2723C117.741 31.4509 124.904 29.5401 133.023 29.5401C142.859 29.5401 150.51 31.8073 155.975 36.3417C159.488 39.1935 161.459 42.0025 161.888 44.7688H144.85C143.952 43.3999 142.918 42.3305 141.747 41.5605C139.6 40.1346 136.809 39.4217 133.374 39.4217ZM132.438 68.8951C135.99 68.8951 138.956 68.0538 141.337 66.3712C143.757 64.7172 145.104 62.2789 145.377 59.0564L119.439 59.0564C119.986 62.0793 121.313 64.4748 123.421 66.2429C125.568 68.011 128.573 68.8951 132.438 68.8951ZM132.438 67.9825C128.854 67.9825 126.219 67.1718 124.355 65.6369C122.687 64.2352 121.518 62.3624 120.903 59.9689H144.007C143.612 62.3557 142.538 64.1477 140.871 65.4248L140.483 65.7046L140.469 65.7153C138.338 67.2206 135.691 67.9825 132.438 67.9825Z" stroke="white"/>
<path d="M97.4245 29.754C96.6829 29.7255 96.1949 29.7112 95.9607 29.7112C95.7656 29.6827 95.5119 29.6684 95.1996 29.6684C90.2033 29.6684 86.1438 30.6238 83.0212 32.5345C81.1085 33.6752 78.8641 35.7998 76.2879 38.9083V30.7806H60.3622V77.4077H77.1661V55.1208C77.1661 51.385 77.8102 48.6187 79.0983 46.8221C81.4013 43.628 85.9096 42.031 92.6234 42.031C93.1308 42.031 93.7944 42.0453 94.6141 42.0738C95.4338 42.1023 96.3706 42.1594 97.4245 42.2449V29.754ZM98.6736 43.2644L97.2867 43.1521C96.5104 43.0891 95.8044 43.0423 95.1679 43.0113L94.5543 42.9855C93.7441 42.9573 93.1027 42.9436 92.6234 42.9436C86.1821 42.9436 82.2138 44.4591 80.2034 47.2472C79.0591 48.8445 78.4152 51.4292 78.4152 55.1208V78.3203H59.1132V29.8681H77.537V35.807C79.2224 34.0275 80.7861 32.6895 82.2307 31.8278C85.6242 29.7551 89.9848 28.7559 95.1996 28.7559C95.5043 28.7559 95.8019 28.7685 96.0754 28.8004C96.2008 28.8019 96.3604 28.8046 96.5523 28.8102L97.4904 28.8423L98.6736 28.8878V43.2644Z" fill="white" stroke="white"/>
<path d="M50.5258 13.9692C49.0426 13.8837 47.8715 13.8266 47.0128 13.7981C46.1541 13.7411 45.1978 13.7126 44.1439 13.7126C34.8929 13.7126 29.0574 15.11 26.6373 17.9047C24.3344 19.7869 23.1829 23.2233 23.1829 28.214V31.2084H14.0491V39.8066H23.3585V77.4077H39.9868V39.8066H50.9357V31.2084H39.9868V27.2729C39.9868 26.3603 40.3966 25.5333 41.2163 24.7918C42.0751 24.0219 43.5974 23.6654 45.7833 23.7224C48.0082 23.7509 49.589 23.808 50.5258 23.8935V13.9692ZM51.7749 24.9273L50.3709 24.799C49.7228 24.7398 48.7048 24.6934 47.2982 24.6617L45.7613 24.635H45.7503L45.7381 24.6341C43.7044 24.5811 42.6768 24.9274 42.1849 25.3684C41.5384 25.9545 41.2359 26.58 41.2359 27.2729V30.2958H52.1847V40.7192H41.2359V78.3203H22.1095V40.7192H12.8V30.2958H21.9338V28.214C21.9338 23.2284 23.0576 19.5091 25.6432 17.3504C27.0619 15.7547 29.3876 14.6244 32.4399 13.8935C35.5297 13.1536 39.4461 12.8 44.1439 12.8C45.2199 12.8 46.2084 12.8282 47.1067 12.8873C47.5381 12.9019 48.0421 12.9234 48.6181 12.9515L50.6246 13.0593L51.7749 13.1262V24.9273Z" fill="white" stroke="white"/>
</g>
<defs>
<filter id="filter0_d_2_69" x="-1.23978e-05" y="-1.23978e-05" width="245.729" height="109.6" filterUnits="userSpaceOnUse" color-interpolation-filters="sRGB">
<feFlood flood-opacity="0" result="BackgroundImageFix"/>
<feColorMatrix in="SourceAlpha" type="matrix" values="0 0 0 0 0 0 0 0 0 0 0 0 0 0 0 0 0 0 127 0" result="hardAlpha"/>
<feOffset/>
<feGaussianBlur stdDeviation="6.15"/>
<feComposite in2="hardAlpha" operator="out"/>
<feColorMatrix type="matrix" values="0 0 0 0 1 0 0 0 0 1 0 0 0 0 1 0 0 0 0.74 0"/>
<feBlend mode="normal" in2="BackgroundImageFix" result="effect1_dropShadow_2_69"/>
<feBlend mode="normal" in="SourceGraphic" in2="effect1_dropShadow_2_69" result="shape"/>
</filter>
</defs>
</svg>
